<svg id="visual" viewBox="0 0 360 640" width="360" height="640" xmlns="http://www.w3.org/2000/svg" xmlns:xlink="http://www.w3.org/1999/xlink" version="1.1"><rect x="0" y="0" width="360" height="640" fill="#f0f7ee"></rect><defs><linearGradient id="grad1_0" x1="0%" y1="0%" x2="100%" y2="100%"><stop offset="30%" stop-color="#f0f7ee" stop-opacity="1"></stop><stop offset="70%" stop-color="#f0f7ee" stop-opacity="1"></stop></linearGradient></defs><defs><linearGradient id="grad2_0" x1="0%" y1="0%" x2="100%" y2="100%"><stop offset="30%" stop-color="#f0f7ee" stop-opacity="1"></stop><stop offset="70%" stop-color="#f0f7ee" stop-opacity="1"></stop></linearGradient></defs><g transform="translate(360, 0)"><path d="M0 252C-27.3 228.3 -54.6 204.6 -77.7 187.5C-100.7 170.5 -119.5 160.1 -147.8 147.8C-176.1 135.5 -213.9 121.4 -232.8 96.4C-251.8 71.5 -251.9 35.7 -252 0L0 0Z" fill="#02484B"></path></g><g transform="translate(0, 640)"><path d="M0 -252C34.5 -246.5 69 -241 92.2 -222.7C115.4 -204.3 127.4 -173.1 152 -152C176.7 -131 214 -120.1 232.8 -96.4C251.6 -72.8 251.8 -36.4 252 0L0 0Z" fill="#02484B"></path></g></svg>