<svg width="361" height="644" viewBox="0 0 361 644" fill="none" xmlns="http://www.w3.org/2000/svg">
<path d="M1 0H361V640H1V0Z" fill="#F0F7EE"/>
<path d="M0.5 320C45.9 325.6 91.4 331.3 119.5 356.7C147.6 382.1 158.4 427.2 190 454.5C221.6 481.8 274 491.4 299.8 520C325.7 548.6 325.1 596.3 324.5 644H0.5V320Z" fill="#02484B"/>
<path d="M0 482C22.7 484.8 45.4 487.6 59.5 500.3C73.6 513 79 535.6 94.8 549.2C110.5 562.9 136.7 567.7 149.7 582C162.6 596.3 162.3 620.2 162 644H0V482Z" fill="#F0F7EE"/>
</svg>
