<svg id="visual" viewBox="0 0 300 515" width="300" height="515" xmlns="http://www.w3.org/2000/svg" xmlns:xlink="http://www.w3.org/1999/xlink" version="1.1"><path d="M0 83L12.5 83C25 83 50 83 75 81.3C100 79.7 125 76.3 150 73C175 69.7 200 66.3 225 61.2C250 56 275 49 287.5 45.5L300 42L300 0L287.5 0C275 0 250 0 225 0C200 0 175 0 150 0C125 0 100 0 75 0C50 0 25 0 12.5 0L0 0Z" fill="#f7b063"></path><path d="M0 289L12.5 267.7C25 246.3 50 203.7 75 202.8C100 202 125 243 150 249C175 255 200 226 225 196.8C250 167.7 275 138.3 287.5 123.7L300 109L300 40L287.5 43.5C275 47 250 54 225 59.2C200 64.3 175 67.7 150 71C125 74.3 100 77.7 75 79.3C50 81 25 81 12.5 81L0 81Z" fill="#f39d41"></path><path d="M0 331L12.5 317.2C25 303.3 50 275.7 75 280.8C100 286 125 324 150 330C175 336 200 310 225 281.7C250 253.3 275 222.7 287.5 207.3L300 192L300 107L287.5 121.7C275 136.3 250 165.7 225 194.8C200 224 175 253 150 247C125 241 100 200 75 200.8C50 201.7 25 244.3 12.5 265.7L0 287Z" fill="#ef8a17"></path><path d="M0 454L12.5 457.5C25 461 50 468 75 466.3C100 464.7 125 454.3 150 444C175 433.7 200 423.3 225 413C250 402.7 275 392.3 287.5 387.2L300 382L300 190L287.5 205.3C275 220.7 250 251.3 225 279.7C200 308 175 334 150 328C125 322 100 284 75 278.8C50 273.7 25 301.3 12.5 315.2L0 329Z" fill="#ce7814"></path><path d="M0 516L12.5 516C25 516 50 516 75 516C100 516 125 516 150 516C175 516 200 516 225 516C250 516 275 516 287.5 516L300 516L300 380L287.5 385.2C275 390.3 250 400.7 225 411C200 421.3 175 431.7 150 442C125 452.3 100 462.7 75 464.3C50 466 25 459 12.5 455.5L0 452Z" fill="#af6612"></path></svg>