<svg width="500" height="500" viewBox="0 0 500 500" fill="none" xmlns="http://www.w3.org/2000/svg">
<path d="M176.232 300.479C176.353 300.76 176.411 301.154 176.411 301.661C176.411 302.309 176.24 302.853 175.892 303.292C175.56 303.713 175.122 303.922 174.575 303.922H156.562C155.261 303.922 154.425 303.17 154.046 301.661L145.321 273.89C145.141 273.314 144.832 272.884 144.395 272.603C143.969 272.322 143.32 272.182 142.445 272.182H138.186C137.807 272.182 137.526 272.322 137.346 272.603C137.166 272.884 137.072 273.138 137.072 273.364V300.796C137.072 301.951 136.826 302.767 136.326 303.238C135.83 303.695 135.056 303.922 134.017 303.922H118.403C117.481 303.922 116.848 303.713 116.5 303.292C116.168 302.853 116 302.169 116 301.24V226.547C116 224.898 116.59 224.078 117.766 224.078H148.767C157.738 224.078 164.697 226.063 169.636 230.04C174.591 234.018 177.068 239.631 177.068 246.88C177.068 251.84 175.935 256.253 173.668 260.122C171.418 263.995 168.503 266.718 164.924 268.295C164.545 268.521 164.357 268.879 164.357 269.373C164.357 269.581 164.416 269.908 164.537 270.343L176.232 300.479ZM147.927 256.131C150.287 256.131 152.096 255.438 153.366 254.056C154.636 252.651 155.269 250.762 155.269 248.379C155.269 245.733 154.507 243.677 152.983 242.204C151.471 240.732 149.599 239.998 147.36 239.998H139.206C138.405 239.998 137.846 240.166 137.526 240.496C137.225 240.813 137.072 241.366 137.072 242.154V253.87C137.072 254.658 137.182 255.238 137.393 255.605C137.604 255.954 138.018 256.131 138.639 256.131H147.927ZM216.067 305C209.311 305 203.415 303.333 198.367 300.008C193.322 296.66 189.439 291.925 186.719 285.791C184 279.662 182.644 272.472 182.644 264.222C182.644 255.972 184.015 248.746 186.766 242.549C189.532 236.328 193.428 231.522 198.457 228.124C203.505 224.708 209.374 223 216.067 223C222.682 223 228.492 224.708 233.49 228.124C238.507 231.522 242.391 236.328 245.138 242.549C247.904 248.746 249.283 255.972 249.283 264.222C249.283 272.404 247.92 279.575 245.185 285.741C242.465 291.907 238.597 296.66 233.584 300.008C228.582 303.333 222.741 305 216.067 305ZM216.067 288.21C218.787 288.21 220.943 287.44 222.545 285.9C224.163 284.355 225.339 281.868 226.082 278.438C226.82 274.986 227.191 270.352 227.191 264.539C227.191 255.641 226.324 249.254 224.585 245.385C222.862 241.511 220.025 239.577 216.067 239.577C212.031 239.577 209.132 241.511 207.365 245.385C205.611 249.254 204.736 255.641 204.736 264.539C204.736 270.352 205.107 274.986 205.845 278.438C206.588 281.868 207.772 284.355 209.405 285.9C211.05 287.44 213.269 288.21 216.067 288.21ZM256.149 303.922C255.648 303.922 255.242 303.727 254.926 303.342C254.621 302.939 254.472 302.381 254.472 301.661C254.472 301.154 254.57 300.574 254.765 299.926L277.221 226.547C277.526 225.619 277.866 224.98 278.241 224.626C278.62 224.259 279.21 224.078 280.011 224.078H298.297C299.036 224.078 299.7 224.35 300.29 224.889C300.88 225.415 301.325 226.108 301.626 226.969L323.902 300.27C324.023 300.846 324.082 301.276 324.082 301.557C324.082 302.205 323.961 302.767 323.722 303.238C323.48 303.695 323.109 303.922 322.609 303.922H304.412C303.357 303.922 302.677 303.31 302.376 302.082L298.75 289.705C298.567 289.216 298.395 288.885 298.227 288.709C298.078 288.518 297.789 288.419 297.367 288.419H277.674C276.936 288.419 276.475 288.813 276.291 289.601L272.485 302.318C272.106 303.387 271.368 303.922 270.266 303.922H256.149ZM292.721 270.134C293.401 270.134 293.741 269.776 293.741 269.056C293.741 268.915 293.683 268.558 293.561 267.978L287.986 249.589C287.865 249.222 287.677 249.036 287.419 249.036C287.177 249.036 286.997 249.222 286.876 249.589L281.21 267.873C281.089 268.154 281.031 268.512 281.031 268.952C281.031 269.74 281.398 270.134 282.14 270.134H292.721ZM344.607 224.078C351.965 224.078 356.54 224.11 358.337 224.182C370.407 224.69 379.531 228.473 385.712 235.531C391.905 242.589 395 252.004 395 263.773C395 271.674 393.605 278.638 390.811 284.663C388.029 290.689 383.884 295.409 378.37 298.825C372.869 302.223 366.164 303.922 358.248 303.922H333.842C332.904 303.922 332.217 303.677 331.779 303.188C331.357 302.676 331.146 301.847 331.146 300.692V226.756C331.146 225.759 331.326 225.066 331.689 224.681C332.068 224.278 332.725 224.078 333.663 224.078H344.607ZM353.148 240.972C352.832 240.972 352.597 241.076 352.445 241.285C352.297 241.498 352.218 241.892 352.218 242.467V285.397C352.218 286.045 352.308 286.484 352.492 286.711C352.672 286.924 353.012 287.028 353.512 287.028H354.168C360.287 287.028 364.941 285.18 368.125 281.483C371.314 277.786 372.908 271.779 372.908 263.461C372.908 256.28 371.701 250.939 369.282 247.432C366.879 243.912 363.362 241.901 358.724 241.389L353.148 240.972Z" fill="#02484B"/>
<path d="M85.3357 117.245C83.419 115.162 81.3565 113.568 79.1482 112.453C76.9503 111.328 73.7784 110.766 69.6274 110.766C65.4711 110.766 62.3982 111.37 60.3982 112.578C58.4086 113.776 57.419 115.203 57.419 116.87C57.419 119.745 59.9711 121.787 65.0857 122.995L84.9607 128.141C92.2367 129.974 97.7107 133.193 101.377 137.787C105.054 142.37 106.898 147.86 106.898 154.245C106.898 160.162 105.336 165.318 102.211 169.703C99.0961 174.094 94.6482 177.49 88.8565 179.891C83.0649 182.292 76.2992 183.495 68.5649 183.495C59.7732 183.495 51.7576 182.037 44.5232 179.12C37.2992 176.203 32.294 172.386 29.5024 167.662C29.0961 166.87 28.8982 166.276 28.8982 165.87C28.8982 165.078 29.3409 164.365 30.2315 163.724L42.5649 155.203C43.4399 154.651 44.2367 154.37 44.9607 154.37C45.8357 154.37 46.5492 154.735 47.1065 155.453C49.8253 158.969 52.5857 161.448 55.3774 162.891C58.169 164.323 61.8826 165.037 66.5232 165.037C70.9919 165.037 74.5284 164.422 77.1274 163.183C79.7211 161.948 81.0232 160.245 81.0232 158.078C81.0232 156.568 80.3826 155.256 79.1065 154.141C77.8253 153.016 75.9451 152.177 73.4607 151.62L55.2524 147.183C48.0701 145.433 42.3617 142.141 38.1274 137.308C33.8878 132.474 31.7732 126.907 31.7732 120.599C31.7732 115.407 33.2836 110.636 36.3149 106.287C39.3565 101.927 43.669 98.49 49.2524 95.9743C54.8461 93.4639 61.3201 92.2035 68.669 92.2035C75.8617 92.2035 82.5284 93.3858 88.669 95.7452C94.8201 98.0941 99.2576 101.224 101.982 105.141C102.534 105.865 102.815 106.547 102.815 107.183C102.815 107.74 102.534 108.256 101.982 108.724L88.919 118.203C88.5128 118.526 88.0753 118.683 87.6065 118.683C87.0492 118.683 86.294 118.203 85.3357 117.245Z" fill="#E58A17"/>
<path d="M115.261 182.287C114.62 182.287 114.099 182.073 113.698 181.641C113.308 181.198 113.115 180.573 113.115 179.766C113.115 179.214 113.229 178.573 113.469 177.849L142.469 96.1618C142.854 95.1202 143.287 94.4014 143.761 93.9952C144.245 93.5941 145.011 93.391 146.052 93.391H169.657C170.615 93.391 171.469 93.6983 172.219 94.3077C172.979 94.9066 173.563 95.6827 173.969 96.641L202.719 178.203C202.87 178.844 202.948 179.323 202.948 179.641C202.948 180.365 202.787 180.99 202.469 181.516C202.146 182.032 201.667 182.287 201.032 182.287H177.552C176.203 182.287 175.328 181.61 174.927 180.245L170.261 166.474C170.011 165.922 169.787 165.547 169.594 165.349C169.396 165.141 169.016 165.037 168.448 165.037H143.052C142.094 165.037 141.495 165.474 141.261 166.349L136.344 180.495C135.87 181.693 134.912 182.287 133.469 182.287H115.261ZM162.469 144.662C163.344 144.662 163.782 144.266 163.782 143.474C163.782 143.308 163.703 142.907 163.552 142.266L156.365 121.787C156.198 121.386 155.953 121.183 155.636 121.183C155.313 121.183 155.078 121.386 154.927 121.787L147.615 142.162C147.448 142.485 147.365 142.881 147.365 143.349C147.365 144.224 147.844 144.662 148.802 144.662H162.469Z" fill="#E58A17"/>
<path d="M290.508 93.391C291.226 93.391 291.804 93.6149 292.237 94.0577C292.679 94.5056 292.903 95.0785 292.903 95.7868C292.903 96.2764 292.867 96.6358 292.799 96.8702L265.008 179.287C264.435 181.287 262.955 182.287 260.57 182.287H241.153C238.763 182.287 237.289 181.287 236.737 179.287L208.945 96.8702C208.778 96.4014 208.695 96.0368 208.695 95.7868C208.695 95.0785 208.929 94.5056 209.403 94.0577C209.888 93.6149 210.492 93.391 211.216 93.391H234.341C235.851 93.391 236.846 94.2347 237.32 95.9118L253.383 148.495C253.534 149.068 253.737 149.349 253.987 149.349C254.138 149.349 254.33 149.032 254.57 148.391L269.549 95.9118C269.716 95.1202 270.096 94.5056 270.695 94.0577C271.289 93.6149 271.95 93.391 272.674 93.391H290.508Z" fill="#E58A17"/>
<path d="M342.609 183.495C333.911 183.495 326.307 181.641 319.797 177.933C313.281 174.214 308.265 168.933 304.755 162.099C301.239 155.266 299.484 147.261 299.484 138.078C299.484 128.901 301.26 120.86 304.817 113.953C308.37 107.037 313.401 101.683 319.901 97.891C326.411 94.0993 333.984 92.2035 342.609 92.2035C351.161 92.2035 358.672 94.0993 365.13 97.891C371.599 101.683 376.614 107.037 380.172 113.953C383.724 120.86 385.505 128.901 385.505 138.078C385.505 147.193 383.745 155.183 380.234 162.058C376.719 168.922 371.724 174.214 365.255 177.933C358.781 181.641 351.234 183.495 342.609 183.495ZM342.609 164.787C346.12 164.787 348.911 163.933 350.984 162.224C353.067 160.506 354.588 157.724 355.547 153.891C356.505 150.058 356.984 144.907 356.984 138.433C356.984 128.532 355.864 121.427 353.63 117.12C351.39 112.802 347.719 110.641 342.609 110.641C337.427 110.641 333.698 112.802 331.422 117.12C329.14 121.427 328.005 128.532 328.005 138.433C328.005 144.907 328.484 150.058 329.442 153.891C330.401 157.724 331.932 160.506 334.047 162.224C336.172 163.933 339.026 164.787 342.609 164.787Z" fill="#E58A17"/>
<path d="M473.184 178.453C473.335 178.776 473.413 179.214 473.413 179.766C473.413 180.49 473.19 181.094 472.747 181.578C472.315 182.052 471.736 182.287 471.018 182.287H447.788C446.106 182.287 445.028 181.448 444.559 179.766L433.288 148.87C433.049 148.235 432.648 147.756 432.08 147.433C431.523 147.115 430.69 146.953 429.58 146.953H424.059C423.585 146.953 423.226 147.115 422.976 147.433C422.736 147.756 422.622 148.032 422.622 148.266V178.808C422.622 180.089 422.299 180.99 421.663 181.516C421.023 182.032 420.028 182.287 418.684 182.287H398.559C397.351 182.287 396.523 182.052 396.08 181.578C395.648 181.094 395.434 180.328 395.434 179.287V96.1618C395.434 94.3181 396.19 93.391 397.705 93.391H437.726C449.309 93.391 458.294 95.6149 464.684 100.058C471.07 104.49 474.268 110.735 474.268 118.787C474.268 124.302 472.809 129.219 469.893 133.537C466.976 137.844 463.195 140.881 458.559 142.641C458.085 142.881 457.851 143.276 457.851 143.828C457.851 144.068 457.924 144.427 458.08 144.912L473.184 178.453ZM436.643 129.099C439.684 129.099 442.018 128.323 443.643 126.766C445.278 125.214 446.101 123.115 446.101 120.474C446.101 117.516 445.122 115.219 443.163 113.578C441.216 111.943 438.809 111.12 435.934 111.12H425.393C424.351 111.12 423.627 111.302 423.226 111.662C422.82 112.026 422.622 112.641 422.622 113.516V126.578C422.622 127.453 422.757 128.094 423.038 128.495C423.33 128.901 423.872 129.099 424.663 129.099H436.643Z" fill="#E58A17"/>
</svg>
