<?xml version="1.0" encoding="iso-8859-1"?>
<!-- Generator: Adobe Illustrator 19.0.0, SVG Export Plug-In . SVG Version: 6.00 Build 0)  -->
<svg version="1.1" width="40px" heigth="40px" id="Layer_1" xmlns="http://www.w3.org/2000/svg" xmlns:xlink="http://www.w3.org/1999/xlink" x="0px" y="0px"
	viewBox="0 0 511.994 511.994" fill='#EF8A17' style="enable-background:new 0 0 511.994 511.994;" xml:space="preserve">
<g>
	<g>
		<g>
			<path d="M131.135,146.225c2.091,2.069,4.821,3.115,7.552,3.115s5.461-1.045,7.531-3.115c4.16-4.16,4.16-10.923,0-15.083l-96-96
				c-4.16-4.16-10.923-4.16-15.083,0c-4.16,4.16-4.16,10.923,0,15.083L131.135,146.225z"/>
			<path d="M80.81,20.401l98.112,83.093c10.027,10.027,15.701,23.381,15.552,36.651c-0.213,18.709,8.832,38.592,29.291,64.491
				c2.112,2.667,5.227,4.053,8.384,4.053c2.304,0,4.651-0.747,6.592-2.325c4.629-3.648,5.397-10.347,1.749-14.976
				c-22.336-28.267-24.789-42.645-24.683-51.008c0.213-18.965-7.723-37.909-22.443-52.565L94.613,4.123
				c-4.501-3.819-11.264-3.243-15.04,1.237C75.754,9.862,76.33,16.603,80.81,20.401z"/>
			<path d="M502.634,457.393L356.01,310.769c-4.16-4.16-10.923-4.16-15.083,0c-4.16,4.16-4.16,10.923,0,15.083l146.624,146.624
				c4.16,4.16,4.16,10.923,0,15.083c-4.16,4.16-10.923,4.16-15.083,0L311.914,327.003c-4.16-4.16-10.923-4.16-15.083,0
				c-4.16,4.16-4.16,10.923,0,15.083l160.555,160.555c6.251,6.229,14.443,9.344,22.635,9.344s16.384-3.115,22.613-9.344
				C515.114,490.161,515.114,469.873,502.634,457.393z"/>
			<path d="M505.173,46.641c-0.043-17.365-5.931-32-17.536-43.52c-3.84-3.84-9.92-4.16-14.165-0.768
				c-2.027,1.621-37.547,36.843-453.376,453.269c-12.501,12.523-12.523,32.875-0.064,45.333c6.251,6.251,14.464,9.365,22.656,9.365
				c8.171,0,16.341-3.115,22.571-9.323L201.045,365.19c52.309-52.288,74.965-59.563,87.445-60.459
				c23.445-1.707,43.669-10.432,58.517-25.259C414.975,211.505,505.301,113.435,505.173,46.641z M286.933,283.419
				c-25.941,1.877-56.149,21.824-100.992,66.645L50.154,485.894c-4.139,4.16-10.901,4.117-15.061-0.043
				c-4.16-4.139-4.117-10.944,0.085-15.147C308.522,196.955,446.101,59.334,479.018,26.651c3.221,5.76,4.8,12.373,4.8,19.989
				c0.107,65.664-114.304,180.096-151.915,217.707C320.746,275.505,305.194,282.097,286.933,283.419z"/>
			<path d="M143.679,215.899c12.352,0.917,27.968,8.96,47.765,24.597c1.963,1.557,4.309,2.304,6.613,2.304
				c3.157,0,6.272-1.387,8.363-4.053c3.648-4.629,2.88-11.328-1.749-14.976c-23.573-18.645-42.475-27.904-59.435-29.141
				c-12.821-0.939-30.976-4.928-44.437-18.389L18.431,88.689c-4.032-4.288-10.795-4.48-15.083-0.448
				c-4.288,4.032-4.48,10.795-0.448,15.083l82.603,87.765C100.01,205.595,120.127,214.171,143.679,215.899z"/>
		</g>
	</g>
</g>
<g>
</g>
<g>
</g>
<g>
</g>
<g>
</g>
<g>
</g>
<g>
</g>
<g>
</g>
<g>
</g>
<g>
</g>
<g>
</g>
<g>
</g>
<g>
</g>
<g>
</g>
<g>
</g>
<g>
</g>
</svg>
